# xmcd
#
# Track frame offsets:
#	150
#	15178
#	32547
#	46637
#	60778
#	82282
#	101759
#	120434
#	135228
#	155801
#	182088
#
# Disc length: 2681 seconds
#
# Revision: 0
# Processed by: cddbd v1.5.2PL0 Copyright (c) Steve Scherf et al.
# Submitted via: EasyCDDAExtractor 4.6.9.1
#
DISCID=790a770b
DTITLE=Laurence Hélie
DYEAR=2010
DGENRE=Québécois
TTITLE0=Kérosène 
TTITLE1=Un pont 
TTITLE2=Plus je reste 
TTITLE3=Tu ne me vois pas 
TTITLE4=Les portes fermées 
TTITLE5=Ici 
TTITLE6=Tu me manques 
TTITLE7=Tant et si bien 
TTITLE8=La douleur de perdre 
TTITLE9=Je ne touche à rien 
TTITLE10=La ville me joue des tours 
EXTD=
EXTT0=
EXTT1=
EXTT2=
EXTT3=
EXTT4=
EXTT5=
EXTT6=
EXTT7=
EXTT8=
EXTT9=
EXTT10=
PLAYORDER=
